HIERARCHY
ROOT root
{
	OFFSET	0	13.1	24.9
	CHANNELS 6  Xposition Yposition Zposition Xrotation Yrotation Zrotation
	JOINT spine_1
	{
		OFFSET	0	9.99999	0
		CHANNELS 3  Xrotation Yrotation Zrotation
		JOINT spine_2
		{
			OFFSET	0	112	-10
			CHANNELS 3  Xrotation Yrotation Zrotation
			JOINT spine_3
			{
				OFFSET	0	206.5	19.3
				CHANNELS 3  Xrotation Yrotation Zrotation
				JOINT spine_4
				{
					OFFSET	0	110.4	14.6
					CHANNELS 3  Xrotation Yrotation Zrotation
					JOINT neck_1
					{
						OFFSET	0	71.8	-50.3
						CHANNELS 3  Xrotation Yrotation Zrotation
						JOINT neck_2
						{
							OFFSET	0	86.2	-25.8
							CHANNELS 3  Xrotation Yrotation Zrotation
							JOINT head_ee
							{
								OFFSET	0	179.8	-8.7
								CHANNELS 3  Xrotation Yrotation Zrotation
								End Site
								{
									OFFSET	1	0	0
								}
							}
						}
					}
					JOINT left_clavicle
					{
						OFFSET	-43.2	22.4	-70.8
						CHANNELS 3  Xrotation Yrotation Zrotation
						JOINT left_shoulder
						{
							OFFSET	-93.9	-5.79999	48.7
							CHANNELS 3  Xrotation Yrotation Zrotation
							JOINT left_elbow
							{
								OFFSET	-291.4	-30.8	15.2
								CHANNELS 3  Xrotation Yrotation Zrotation
								JOINT left_lowarm_twist
								{
									OFFSET	-110.7	-3.89999	13.6
									CHANNELS 3  Xrotation Yrotation Zrotation
									JOINT left_hand
									{
										OFFSET	-110.7	-3.89999	13.6
										CHANNELS 3  Xrotation Yrotation Zrotation
										JOINT left_ee
										{
											OFFSET	-80.8	-5.10001	12.1
											CHANNELS 3  Xrotation Yrotation Zrotation
											End Site
											{
												OFFSET	1	0	0
											}
										}
									}
								}
							}
						}
					}
					JOINT right_clavicle
					{
						OFFSET	43.2	22.4	-70.8
						CHANNELS 3  Xrotation Yrotation Zrotation
						JOINT right_shoulder
						{
							OFFSET	93.9	-5.79999	48.7
							CHANNELS 3  Xrotation Yrotation Zrotation
							JOINT right_elbow
							{
								OFFSET	291.4	-30.8	15.2
								CHANNELS 3  Xrotation Yrotation Zrotation
								JOINT right_lowarm_twist
								{
									OFFSET	110.7	-3.89999	13.6
									CHANNELS 3  Xrotation Yrotation Zrotation
									JOINT right_hand
									{
										OFFSET	110.7	-3.89999	13.6
										CHANNELS 3  Xrotation Yrotation Zrotation
										JOINT right_ee
										{
											OFFSET	80.8	-5.10001	12.1
											CHANNELS 3  Xrotation Yrotation Zrotation
											End Site
											{
												OFFSET	1	0	0
											}
										}
									}
								}
							}
						}
					}
				}
			}
		}
	}
	JOINT left_hip
	{
		OFFSET	-82.8	-127.5	0.300001
		CHANNELS 3  Xrotation Yrotation Zrotation
		JOINT left_knee
		{
			OFFSET	-28.2	-396.7	2.2
			CHANNELS 3  Xrotation Yrotation Zrotation
			JOINT left_ankle
			{
				OFFSET	-11.7	-411.3	35.4
				CHANNELS 3  Xrotation Yrotation Zrotation
				JOINT left_toes
				{
					OFFSET	0	-60	-88.6
					CHANNELS 3  Xrotation Yrotation Zrotation
					JOINT left_foot_ee
					{
						OFFSET	-22.5	-16.5	-42.2
						CHANNELS 3  Xrotation Yrotation Zrotation
						End Site
						{
							OFFSET	1	0	0
						}
					}
				}
			}
		}
	}
	JOINT right_hip
	{
		OFFSET	82.8	-127.5	0.300001
		CHANNELS 3  Xrotation Yrotation Zrotation
		JOINT right_knee
		{
			OFFSET	28.2	-396.7	2.2
			CHANNELS 3  Xrotation Yrotation Zrotation
			JOINT right_ankle
			{
				OFFSET	11.7	-411.3	35.4
				CHANNELS 3  Xrotation Yrotation Zrotation
				JOINT right_toes
				{
					OFFSET	0	-60	-88.6
					CHANNELS 3  Xrotation Yrotation Zrotation
					JOINT right_foot_ee
					{
						OFFSET	22.5	-16.5	-42.2
						CHANNELS 3  Xrotation Yrotation Zrotation
						End Site
						{
							OFFSET	1	0	0
						}
					}
				}
			}
		}
	}
}
MOTION
Frames: 12
Frame Time: 0.02
3515.69207825 739.413 -1500.44134774 24.1243581008 71.3706268508 -27.439540056 -2.71387 1.13071 4.28785 -2.70406 0.855834 4.35094 -2.62473 -0.280379 4.4253 -2.6518 0.421335 4.41413 -14.3789 -3.58296 -18.2574 -13.4593 4.29161 -18.4854 -0.0 0.0 -0.0 -7.40917 24.7229 -7.12917 -2.40434 -6.38909 71.6203 1.20924 -30.9213 0.334468 12.8596 0.272677 -1.61663 -2.84156 26.556 -5.2935 -0.0 0.0 -0.0 13.3592 27.3808 -26.3365 5.03552 20.7966 -62.647 0.673413 18.4482 -0.109361 54.8838 1.3402 6.61645 -1.45453 -11.9143 4.29962 0.0 0.0 0.0 -7.52914 17.3292 -5.75877 -5.17245 0.178141 0.773561 26.9165 14.5989 -3.58554 -13.6014 0.0 0.0 -0.0 0.0 -0.0 3.94182 39.0638 -14.3289 -36.7902 0.275289 -5.54367 36.2111 -2.5327 4.52025 3.91785 -0.0 -0.0 0.0 0.0 0.0 
3516.88127871 739.413 -1503.00256175 21.4097484599 69.0426597795 -24.5551462072 -2.71387 1.13071 4.28785 -2.70406 0.855834 4.35094 -2.62473 -0.280379 4.4253 -2.6518 0.421335 4.41413 -14.3789 -3.58296 -18.2574 -13.4593 4.29161 -18.4854 -0.0 0.0 -0.0 -7.40917 24.7229 -7.12917 -2.40434 -6.38909 71.6203 1.20924 -30.9213 0.334468 12.8596 0.272677 -1.61663 -2.84156 26.556 -5.2935 -0.0 0.0 -0.0 13.3592 27.3808 -26.3365 5.03552 20.7966 -62.647 0.673413 18.4482 -0.109361 54.8838 1.3402 6.61645 -1.45453 -11.9143 4.29962 0.0 0.0 0.0 -7.52914 17.3292 -5.75877 -5.17245 0.178141 0.773561 26.9165 14.5989 -3.58554 -13.6014 0.0 0.0 -0.0 0.0 -0.0 3.94182 39.0638 -14.3289 -36.7902 0.275289 -5.54367 36.2111 -2.5327 4.52025 3.91785 -0.0 -0.0 0.0 0.0 0.0 
3516.77891237 739.413 -1502.7932716 21.6100958617 69.2363793932 -24.7695472123 -2.71387 1.13071 4.28785 -2.70406 0.855834 4.35094 -2.62473 -0.280379 4.4253 -2.6518 0.421335 4.41413 -14.3789 -3.58296 -18.2574 -13.4593 4.29161 -18.4854 -0.0 0.0 -0.0 -7.40917 24.7229 -7.12917 -2.40434 -6.38909 71.6203 1.20924 -30.9213 0.334468 12.8596 0.272677 -1.61663 -2.84156 26.556 -5.2935 -0.0 0.0 -0.0 13.3592 27.3808 -26.3365 5.03552 20.7966 -62.647 0.673413 18.4482 -0.109361 54.8838 1.3402 6.61645 -1.45453 -11.9143 4.29962 0.0 0.0 0.0 -7.52914 17.3292 -5.75877 -5.17245 0.178141 0.773561 26.9165 14.5989 -3.58554 -13.6014 0.0 0.0 -0.0 0.0 -0.0 3.94182 39.0638 -14.3289 -36.7902 0.275289 -5.54367 36.2111 -2.5327 4.52025 3.91785 -0.0 -0.0 0.0 0.0 0.0 
3516.42197942 739.413 -1502.04797586 22.3525866858 69.9212419969 -25.5618149759 -2.71387 1.13071 4.28785 -2.70406 0.855834 4.35094 -2.62473 -0.280379 4.4253 -2.6518 0.421335 4.41413 -14.3789 -3.58296 -18.2574 -13.4593 4.29161 -18.4854 -0.0 0.0 -0.0 -7.40917 24.7229 -7.12917 -2.40434 -6.38909 71.6203 1.20924 -30.9213 0.334468 12.8596 0.272677 -1.61663 -2.84156 26.556 -5.2935 -0.0 0.0 -0.0 13.3592 27.3808 -26.3365 5.03552 20.7966 -62.647 0.673413 18.4482 -0.109361 54.8838 1.3402 6.61645 -1.45453 -11.9143 4.29962 0.0 0.0 0.0 -7.52914 17.3292 -5.75877 -5.17245 0.178141 0.773561 26.9165 14.5989 -3.58554 -13.6014 0.0 0.0 -0.0 0.0 -0.0 3.94182 39.0638 -14.3289 -36.7902 0.275289 -5.54367 36.2111 -2.5327 4.52025 3.91785 -0.0 -0.0 0.0 0.0 0.0 
3514.37507208 737.981 -1501.06438561 25.2215584827 72.0362799038 -28.3808241351 -2.8255 1.32079 4.16057 -2.81649 1.05361 4.236 -2.72414 -0.0668201 4.36432 -2.75018 0.622627 4.32028 -13.2 -4.19188 -17.2661 -12.3691 2.88965 -17.7479 -0.0 0.0 -0.0 -7.87797 24.5689 -7.83512 -2.65427 -6.76381 72.8433 1.13658 -29.3799 0.297973 13.2276 0.275104 -1.66358 -2.83972 27.8144 -4.59859 -0.0 0.0 -0.0 13.6054 27.3415 -26.912 6.7358 21.6781 -61.6638 0.698868 19.0958 -0.117553 55.2735 1.37167 6.65523 -1.39279 -10.6662 4.47939 0.0 0.0 0.0 -5.90028 17.1055 -5.63825 -4.73006 0.165647 0.706819 27.5933 15.3601 -3.67001 -12.4558 0.0 0.0 -0.0 0.0 -0.0 2.54483 38.7999 -13.8702 -34.6231 0.160588 -5.23112 37.1193 -2.15664 4.60654 4.35325 -0.0 -0.0 0.0 0.0 0.0 
3510.00710829 735.576 -1498.31568893 29.8228769122 77.1541443274 -33.5389586281 -2.68504 0.954165 4.06743 -2.67611 0.693636 4.11978 -2.61374 -0.377902 4.16057 -2.63778 0.283337 4.16806 -10.3612 -5.45792 -16.9853 -9.55324 1.20797 -17.9064 -0.0 0.0 -0.0 -9.05295 24.6591 -9.45624 -3.63392 -7.75623 75.405 1.24839 -31.7319 0.354824 14.0882 0.279602 -1.7734 -2.74508 28.9169 -3.49029 -0.0 0.0 -0.0 13.6149 27.2653 -26.9442 7.41008 22.3701 -59.9059 0.762749 20.6987 -0.139296 54.3827 1.30013 6.5663 -0.936028 -7.97906 2.74387 0.0 0.0 0.0 -1.5002 16.7969 -5.05019 -4.16864 0.149049 0.622256 24.2237 16.6239 -3.28893 -10.4729 0.0 0.0 -0.0 0.0 -0.0 2.30145 40.4577 -14.1929 -31.5084 0.0166587 -4.77495 37.6574 -4.45408 4.64961 3.12499 -0.0 -0.0 0.0 0.0 0.0 
3506.29473064 736.701 -1494.49437846 34.9802489478 79.070005215 -38.5715823145 -2.41073 0.77028 3.77871 -2.40295 0.52845 3.81999 -2.35786 -0.444455 3.83065 -2.3783 0.165639 3.85276 -9.48892 -6.44654 -16.4671 -8.73411 -0.737748 -17.6506 -0.0 0.0 -0.0 -10.0476 23.8494 -11.2262 -4.56567 -8.75995 77.6756 1.05007 -27.4815 0.256777 16.427 0.283488 -2.07208 -1.61772 29.1303 2.65107 -0.0 0.0 -0.0 13.3524 27.1309 -26.353 9.8236 24.3514 -60.662 0.839676 22.5847 -0.16767 52.8455 1.17997 6.41029 -0.629325 -5.63425 1.76718 0.0 0.0 0.0 6.89734 15.8981 -7.20971 -4.50405 0.159065 0.672757 11.6805 22.0475 -1.70287 -9.79712 0.0 0.0 -0.0 0.0 -0.0 -0.901426 42.9433 -12.5221 -24.9742 -0.203532 -3.79687 40.5855 -6.28377 4.90953 1.89207 -0.0 -0.0 0.0 0.0 0.0 
3500.51490332 741.514 -1493.04321244 43.0269539256 82.1645259692 -46.9295439348 -2.19307 0.545401 3.68961 -2.18555 0.309682 3.71679 -2.15709 -0.617928 3.67817 -2.17596 -0.0296951 3.72953 -6.85763 -7.52158 -15.9804 -6.15733 -2.26871 -17.4784 -0.0 0.0 -0.0 -10.7218 23.255 -12.4922 -5.16432 -9.56161 79.5466 0.999507 -26.3407 0.233892 15.5959 0.283504 -1.96593 -1.72854 29.3208 2.14645 -0.0 0.0 -0.0 13.7689 26.4932 -27.4015 11.0031 24.8288 -59.8358 0.90542 24.1568 -0.193752 53.3348 1.21776 6.4603 -0.372828 -4.27349 0.665505 0.0 0.0 0.0 11.4919 16.1978 -8.29111 -7.02368 0.224819 1.05381 8.20988 22.6752 -1.21354 -10.2398 0.0 0.0 -0.0 0.0 -0.0 -0.948438 44.7038 -12.8352 -22.282 -0.261553 -3.38784 38.1659 -7.43133 4.69901 1.54123 -0.0 -0.0 0.0 0.0 0.0 
3496.2176155 737.803 -1489.93175644 39.0136123488 81.64294303 -42.67568303 -2.03697 0.794289 3.55483 -2.03012 0.566627 3.59809 -1.98638 -0.328248 3.62757 -2.00465 0.248389 3.63391 -10.7313 -5.95329 -16.6307 -9.95863 -0.0885931 -17.6599 -0.0 0.0 -0.0 -10.9105 22.7348 -13.015 -5.93994 -10.4245 80.5828 0.853727 -22.9238 0.173105 16.1158 0.283674 -2.03234 -1.14671 28.9425 5.09577 -0.0 0.0 -0.0 13.2464 26.2797 -26.2137 12.911 25.6346 -60.6469 1.05392 27.5675 -0.258558 52.8957 1.18382 6.41544 -0.195724 -4.22303 -0.479419 0.0 0.0 0.0 16.1401 15.6984 -10.0374 -13.0656 0.313796 1.97621 9.49364 23.7535 -1.40501 -9.65193 0.0 0.0 -0.0 0.0 -0.0 -1.74456 44.603 -12.2239 -21.6282 -0.272738 -3.28814 40.4275 -8.84446 4.90607 0.985092 -0.0 -0.0 0.0 0.0 0.0 
3490.17045556 735.056 -1490.01399808 44.9014823987 83.0299070902 -48.6614730967 -2.0226 0.756131 3.56738 -2.01568 0.527749 3.60819 -1.97435 -0.367733 3.62796 -1.99265 0.209459 3.64052 -10.159 -6.18508 -16.5008 -9.39943 -0.434126 -17.6039 -0.0 0.0 -0.0 -11.3433 22.4288 -13.8265 -6.681 -10.6024 81.3508 0.828121 -22.3046 0.163259 16.4283 0.283487 -2.07225 -0.979309 29.0806 6.05453 -0.0 0.0 -0.0 13.5948 26.1688 -27.0364 14.603 25.8336 -59.2562 1.07538 28.0441 -0.26857 53.1302 1.20191 6.43943 0.0462153 -2.40942 -1.31853 0.0 0.0 0.0 20.1613 15.4787 -9.77396 -12.093 0.30605 1.82718 2.31056 25.5798 -0.352042 -9.12069 0.0 0.0 -0.0 0.0 -0.0 -3.17518 46.824 -12.033 -18.4568 -0.310811 -2.80308 41.4804 -10.6286 5.00938 1.8901 -0.0 -0.0 0.0 0.0 0.0 
3481.89036385 735.277 -1484.57923043 49.6999512086 83.7103731311 -53.3033250869 -2.05436 0.87818 3.49913 -2.04779 0.653886 3.54783 -1.99914 -0.231981 3.60005 -2.01706 0.339116 3.59156 -11.5597 -5.18761 -16.5457 -10.7931 1.04263 -17.3664 -0.0 0.0 -0.0 -11.3063 22.1111 -13.9174 -7.10163 -11.3431 81.9536 0.666867 -18.2808 0.107299 16.7934 0.282993 -2.11888 -0.57889 29.021 8.19403 -0.0 0.0 -0.0 13.3753 26.3279 -26.5066 17.8598 26.1949 -59.147 1.28354 32.4478 -0.373496 53.2324 1.20981 6.44986 0.349288 -0.427939 -2.51093 0.0 0.0 0.0 25.2388 13.346 -9.95607 -14.8278 0.321381 2.24647 1.42631 26.4659 -0.21884 -10.0412 0.0 0.0 -0.0 0.0 -0.0 -4.2836 47.8068 -12.0711 -17.7112 -0.315861 -2.68878 41.8427 -13.8486 5.07712 3.3444 -0.0 -0.0 0.0 0.0 0.0 
3481.8116629 735.277 -1483.80947165 53.1626994548 84.0075481483 -56.786034765 -2.05436 0.87818 3.49913 -2.04779 0.653886 3.54783 -1.99914 -0.231981 3.60005 -2.01706 0.339116 3.59156 -11.5597 -5.18761 -16.5457 -10.7931 1.04263 -17.3664 -0.0 0.0 -0.0 -11.3063 22.1111 -13.9174 -7.10163 -11.3431 81.9536 0.666867 -18.2808 0.107299 16.7934 0.282993 -2.11888 -0.57889 29.021 8.19403 -0.0 0.0 -0.0 13.3753 26.3279 -26.5066 17.8598 26.1949 -59.147 1.28354 32.4478 -0.373496 53.2324 1.20981 6.44986 0.349288 -0.427939 -2.51093 0.0 0.0 0.0 25.2388 13.346 -9.95607 -14.8278 0.321381 2.24647 1.42631 26.4659 -0.21884 -10.0412 0.0 0.0 -0.0 0.0 -0.0 -4.2836 47.8068 -12.0711 -17.7112 -0.315861 -2.68878 41.8427 -13.8486 5.07712 3.3444 -0.0 -0.0 0.0 0.0 0.0 
